<?xml version="1.0" encoding="UTF-8"?><svg xmlns="http://www.w3.org/2000/svg" xmlns:xlink="http://www.w3.org/1999/xlink" fill-opacity="1" color-rendering="auto" color-interpolation="auto" text-rendering="auto" stroke="black" stroke-linecap="square" width="1187" stroke-miterlimit="10" shape-rendering="auto" stroke-opacity="1" fill="black" stroke-dasharray="none" font-weight="normal" stroke-width="1" height="1054" font-family="'Dialog'" font-style="normal" stroke-linejoin="miter" font-size="12px" stroke-dashoffset="0" image-rendering="auto">
  <!--Generated by ySVG 2.5-->
  <defs id="genericDefs"/>
  <g>
    <defs id="defs1">
      <clipPath clipPathUnits="userSpaceOnUse" id="clipPath1">
        <path d="M0 0 L1187 0 L1187 1054 L0 1054 L0 0 Z"/>
      </clipPath>
      <clipPath clipPathUnits="userSpaceOnUse" id="clipPath2">
        <path d="M-998 21 L189 21 L189 1075 L-998 1075 L-998 21 Z"/>
      </clipPath>
      <clipPath clipPathUnits="userSpaceOnUse" id="clipPath3">
        <path d="M-207.2909 -231.2572 L979.5639 -249.8232 L996.0496 804.0479 L-190.8052 822.6138 L-207.2909 -231.2572 Z"/>
      </clipPath>
      <clipPath clipPathUnits="userSpaceOnUse" id="clipPath4">
        <path d="M-203.5499 -365.2241 L983.264 -344.2028 L964.598 709.632 L-222.2158 688.6106 L-203.5499 -365.2241 Z"/>
      </clipPath>
      <clipPath clipPathUnits="userSpaceOnUse" id="clipPath5">
        <path d="M-200.3525 -197.368 L986.5366 -213.5901 L1000.941 840.3115 L-185.9481 856.5336 L-200.3525 -197.368 Z"/>
      </clipPath>
      <clipPath clipPathUnits="userSpaceOnUse" id="clipPath6">
        <path d="M-641.6702 -570.2634 L545.3189 -565.1885 L540.8126 488.8019 L-646.1766 483.7269 L-641.6702 -570.2634 Z"/>
      </clipPath>
      <clipPath clipPathUnits="userSpaceOnUse" id="clipPath7">
        <path d="M-767.5132 -943.6708 L419.4475 -953.3262 L428.0211 100.639 L-758.9396 110.2944 L-767.5132 -943.6708 Z"/>
      </clipPath>
      <clipPath clipPathUnits="userSpaceOnUse" id="clipPath8">
        <path d="M-659.3958 -886.918 L527.6042 -886.5792 L527.3033 167.4208 L-659.6967 167.0819 L-659.3958 -886.918 Z"/>
      </clipPath>
      <clipPath clipPathUnits="userSpaceOnUse" id="clipPath9">
        <path d="M-904.1708 -936.6949 L282.5277 -909.9398 L258.7704 143.7924 L-927.928 117.0373 L-904.1708 -936.6949 Z"/>
      </clipPath>
      <clipPath clipPathUnits="userSpaceOnUse" id="clipPath10">
        <path d="M-615.145 -656.4878 L571.822 -647.6423 L563.9677 406.3284 L-622.9994 397.4829 L-615.145 -656.4878 Z"/>
      </clipPath>
    </defs>
    <g fill="white" text-rendering="geometricPrecision" shape-rendering="geometricPrecision" transform="translate(998,-21)" stroke="white">
      <rect x="-998" width="1187" height="1054" y="21" clip-path="url(#clipPath2)" stroke="none"/>
    </g>
    <g fill="white" text-rendering="geometricPrecision" shape-rendering="geometricPrecision" transform="matrix(1,0,0,1,998,-21)" stroke="white">
      <path d="M-22.0159 813.3195 Q-22.0159 803.3195 -12.0159 803.3195 L163.4543 803.3195 Q173.4543 803.3195 173.4543 813.3195 L173.4543 1049.4634 Q173.4543 1059.4634 163.4543 1059.4634 L-12.0159 1059.4634 Q-22.0159 1059.4634 -22.0159 1049.4634 Z" stroke="none" clip-path="url(#clipPath2)"/>
    </g>
    <g stroke-linecap="round" transform="matrix(1,0,0,1,998,-21)" text-rendering="geometricPrecision" shape-rendering="geometricPrecision" stroke-dasharray="8,6,0,6" stroke-width="2" stroke-miterlimit="1.45">
      <path fill="none" d="M-22.0159 813.3195 Q-22.0159 803.3195 -12.0159 803.3195 L163.4543 803.3195 Q173.4543 803.3195 173.4543 813.3195 L173.4543 1049.4634 Q173.4543 1059.4634 163.4543 1059.4634 L-12.0159 1059.4634 Q-22.0159 1059.4634 -22.0159 1049.4634 Z" clip-path="url(#clipPath2)"/>
    </g>
    <g fill="white" text-rendering="geometricPrecision" shape-rendering="geometricPrecision" transform="matrix(1,0,0,1,998,-21)" stroke="white">
      <path d="M-239.1001 553.027 Q-239.1001 543.027 -229.1001 543.027 L-47.9289 543.027 Q-37.9289 543.027 -37.9289 553.027 L-37.9289 1049.4634 Q-37.9289 1059.4634 -47.9289 1059.4634 L-229.1001 1059.4634 Q-239.1001 1059.4634 -239.1001 1049.4634 Z" stroke="none" clip-path="url(#clipPath2)"/>
    </g>
    <g stroke-linecap="round" transform="matrix(1,0,0,1,998,-21)" text-rendering="geometricPrecision" shape-rendering="geometricPrecision" stroke-dasharray="8,6,0,6" stroke-width="2" stroke-miterlimit="1.45">
      <path fill="none" d="M-239.1001 553.027 Q-239.1001 543.027 -229.1001 543.027 L-47.9289 543.027 Q-37.9289 543.027 -37.9289 553.027 L-37.9289 1049.4634 Q-37.9289 1059.4634 -47.9289 1059.4634 L-229.1001 1059.4634 Q-239.1001 1059.4634 -239.1001 1049.4634 Z" clip-path="url(#clipPath2)"/>
    </g>
    <g fill="white" text-rendering="geometricPrecision" shape-rendering="geometricPrecision" transform="matrix(1,0,0,1,998,-21)" stroke="white">
      <path d="M-657.6719 222.3805 Q-657.6719 212.3805 -647.6719 212.3805 L-361.5589 212.3805 Q-351.5589 212.3805 -351.5589 222.3805 L-351.5589 1049.4634 Q-351.5589 1059.4634 -361.5589 1059.4634 L-647.6719 1059.4634 Q-657.6719 1059.4634 -657.6719 1049.4634 Z" stroke="none" clip-path="url(#clipPath2)"/>
    </g>
    <g stroke-linecap="round" transform="matrix(1,0,0,1,998,-21)" text-rendering="geometricPrecision" shape-rendering="geometricPrecision" stroke-dasharray="8,6,0,6" stroke-width="2" stroke-miterlimit="1.45">
      <path fill="none" d="M-657.6719 222.3805 Q-657.6719 212.3805 -647.6719 212.3805 L-361.5589 212.3805 Q-351.5589 212.3805 -351.5589 222.3805 L-351.5589 1049.4634 Q-351.5589 1059.4634 -361.5589 1059.4634 L-647.6719 1059.4634 Q-657.6719 1059.4634 -657.6719 1049.4634 Z" clip-path="url(#clipPath2)"/>
    </g>
    <g fill="silver" text-rendering="geometricPrecision" shape-rendering="geometricPrecision" transform="matrix(1,0,0,1,998,-21)" stroke="silver">
      <path d="M-548.6169 233.567 Q-548.6169 223.567 -538.6169 223.567 L-500.9529 223.567 Q-490.9529 223.567 -490.9529 233.567 L-490.9529 253.567 Q-490.9529 263.567 -500.9529 263.567 L-538.6169 263.567 Q-548.6169 263.567 -548.6169 253.567 Z" stroke="none" clip-path="url(#clipPath2)"/>
    </g>
    <g text-rendering="geometricPrecision" stroke-miterlimit="1.45" shape-rendering="geometricPrecision" transform="matrix(1,0,0,1,998,-21)" stroke-linecap="butt">
      <path fill="none" d="M-548.6169 233.567 Q-548.6169 223.567 -538.6169 223.567 L-500.9529 223.567 Q-490.9529 223.567 -490.9529 233.567 L-490.9529 253.567 Q-490.9529 263.567 -500.9529 263.567 L-538.6169 263.567 Q-548.6169 263.567 -548.6169 253.567 Z" clip-path="url(#clipPath2)"/>
      <text x="-541.6169" xml:space="preserve" y="247.7213" clip-path="url(#clipPath2)" font-family="sans-serif" stroke="none">core.so</text>
    </g>
    <g fill="white" text-rendering="geometricPrecision" shape-rendering="geometricPrecision" transform="matrix(1,0,0,1,998,-21)" stroke="white">
      <path d="M-791.7308 295.4971 Q-791.7308 285.4971 -781.7308 285.4971 L-668.0296 285.4971 Q-658.0296 285.4971 -658.0296 295.4971 L-658.0296 315.4971 Q-658.0296 325.4971 -668.0296 325.4971 L-781.7308 325.4971 Q-791.7308 325.4971 -791.7308 315.4971 Z" stroke="none" clip-path="url(#clipPath2)"/>
    </g>
    <g text-rendering="geometricPrecision" stroke-miterlimit="1.45" shape-rendering="geometricPrecision" transform="matrix(1,0,0,1,998,-21)" stroke-linecap="butt">
      <path fill="none" d="M-791.7308 295.4971 Q-791.7308 285.4971 -781.7308 285.4971 L-668.0296 285.4971 Q-658.0296 285.4971 -658.0296 295.4971 L-658.0296 315.4971 Q-658.0296 325.4971 -668.0296 325.4971 L-781.7308 325.4971 Q-791.7308 325.4971 -791.7308 315.4971 Z" clip-path="url(#clipPath2)"/>
      <text x="-784.7308" xml:space="preserve" y="309.6514" clip-path="url(#clipPath2)" font-family="sans-serif" stroke="none">struct fcom_coreinit</text>
    </g>
    <g fill="rgb(204,255,204)" text-rendering="geometricPrecision" shape-rendering="geometricPrecision" transform="matrix(1,0,0,1,998,-21)" stroke="rgb(204,255,204)">
      <path d="M-890.627 312.6504 Q-890.627 302.6504 -880.627 302.6504 L-847.2812 302.6504 Q-837.2812 302.6504 -837.2812 312.6504 L-837.2812 332.6504 Q-837.2812 342.6504 -847.2812 342.6504 L-880.627 342.6504 Q-890.627 342.6504 -890.627 332.6504 Z" stroke="none" clip-path="url(#clipPath2)"/>
    </g>
    <g text-rendering="geometricPrecision" stroke-miterlimit="1.45" shape-rendering="geometricPrecision" transform="matrix(1,0,0,1,998,-21)" stroke-linecap="butt">
      <path fill="none" d="M-890.627 312.6504 Q-890.627 302.6504 -880.627 302.6504 L-847.2812 302.6504 Q-837.2812 302.6504 -837.2812 312.6504 L-837.2812 332.6504 Q-837.2812 342.6504 -847.2812 342.6504 L-880.627 342.6504 Q-890.627 342.6504 -890.627 332.6504 Z" clip-path="url(#clipPath2)"/>
      <text x="-883.627" xml:space="preserve" y="326.8047" clip-path="url(#clipPath2)" font-family="sans-serif" stroke="none">main()</text>
    </g>
    <g fill="rgb(204,255,204)" text-rendering="geometricPrecision" shape-rendering="geometricPrecision" transform="matrix(1,0,0,1,998,-21)" stroke="rgb(204,255,204)">
      <path d="M-612.4792 312.6504 Q-612.4792 302.6504 -602.4792 302.6504 L-541.0905 302.6504 Q-531.0905 302.6504 -531.0905 312.6504 L-531.0905 332.6504 Q-531.0905 342.6504 -541.0905 342.6504 L-602.4792 342.6504 Q-612.4792 342.6504 -612.4792 332.6504 Z" stroke="none" clip-path="url(#clipPath2)"/>
    </g>
    <g text-rendering="geometricPrecision" stroke-miterlimit="1.45" shape-rendering="geometricPrecision" transform="matrix(1,0,0,1,998,-21)" stroke-linecap="butt">
      <path fill="none" d="M-612.4792 312.6504 Q-612.4792 302.6504 -602.4792 302.6504 L-541.0905 302.6504 Q-531.0905 302.6504 -531.0905 312.6504 L-531.0905 332.6504 Q-531.0905 342.6504 -541.0905 342.6504 L-602.4792 342.6504 Q-612.4792 342.6504 -612.4792 332.6504 Z" clip-path="url(#clipPath2)"/>
      <text x="-605.4792" xml:space="preserve" y="326.8047" clip-path="url(#clipPath2)" font-family="sans-serif" stroke="none">core_conf()</text>
    </g>
    <g fill="white" text-rendering="geometricPrecision" shape-rendering="geometricPrecision" transform="matrix(1,0,0,1,998,-21)" stroke="white">
      <path d="M-798.1263 345.4704 Q-798.1263 335.4704 -788.1263 335.4704 L-661.6341 335.4704 Q-651.6341 335.4704 -651.6341 345.4704 L-651.6341 365.4704 Q-651.6341 375.4704 -661.6341 375.4704 L-788.1263 375.4704 Q-798.1263 375.4704 -798.1263 365.4704 Z" stroke="none" clip-path="url(#clipPath2)"/>
    </g>
    <g text-rendering="geometricPrecision" stroke-miterlimit="1.45" shape-rendering="geometricPrecision" transform="matrix(1,0,0,1,998,-21)" stroke-linecap="butt">
      <path fill="none" d="M-798.1263 345.4704 Q-798.1263 335.4704 -788.1263 335.4704 L-661.6341 335.4704 Q-651.6341 335.4704 -651.6341 345.4704 L-651.6341 365.4704 Q-651.6341 375.4704 -661.6341 375.4704 L-788.1263 375.4704 Q-798.1263 375.4704 -798.1263 365.4704 Z" clip-path="url(#clipPath2)"/>
      <text x="-791.1263" xml:space="preserve" y="359.6247" clip-path="url(#clipPath2)" font-family="sans-serif" stroke="none">struct fcom_core_conf</text>
    </g>
    <g fill="rgb(204,255,204)" text-rendering="geometricPrecision" shape-rendering="geometricPrecision" transform="matrix(1,0,0,1,998,-21)" stroke="rgb(204,255,204)">
      <path d="M-617.155 501.7004 Q-617.155 491.7004 -607.155 491.7004 L-551.3913 491.7004 Q-541.3913 491.7004 -541.3913 501.7004 L-541.3913 521.7004 Q-541.3913 531.7004 -551.3913 531.7004 L-607.155 531.7004 Q-617.155 531.7004 -617.155 521.7004 Z" stroke="none" clip-path="url(#clipPath2)"/>
    </g>
    <g text-rendering="geometricPrecision" stroke-miterlimit="1.45" shape-rendering="geometricPrecision" transform="matrix(1,0,0,1,998,-21)" stroke-linecap="butt">
      <path fill="none" d="M-617.155 501.7004 Q-617.155 491.7004 -607.155 491.7004 L-551.3913 491.7004 Q-541.3913 491.7004 -541.3913 501.7004 L-541.3913 521.7004 Q-541.3913 531.7004 -551.3913 531.7004 L-607.155 531.7004 Q-617.155 531.7004 -617.155 521.7004 Z" clip-path="url(#clipPath2)"/>
      <text x="-610.155" xml:space="preserve" y="515.8547" clip-path="url(#clipPath2)" font-family="sans-serif" stroke="none">core_run()</text>
    </g>
    <g fill="rgb(204,255,204)" text-rendering="geometricPrecision" shape-rendering="geometricPrecision" transform="matrix(1,0,0,1,998,-21)" stroke="rgb(204,255,204)">
      <path d="M-890.627 431.7004 Q-890.627 421.7004 -880.627 421.7004 L-847.2812 421.7004 Q-837.2812 421.7004 -837.2812 431.7004 L-837.2812 451.7004 Q-837.2812 461.7004 -847.2812 461.7004 L-880.627 461.7004 Q-890.627 461.7004 -890.627 451.7004 Z" stroke="none" clip-path="url(#clipPath2)"/>
    </g>
    <g text-rendering="geometricPrecision" stroke-miterlimit="1.45" shape-rendering="geometricPrecision" transform="matrix(1,0,0,1,998,-21)" stroke-linecap="butt">
      <path fill="none" d="M-890.627 431.7004 Q-890.627 421.7004 -880.627 421.7004 L-847.2812 421.7004 Q-837.2812 421.7004 -837.2812 431.7004 L-837.2812 451.7004 Q-837.2812 461.7004 -847.2812 461.7004 L-880.627 461.7004 Q-890.627 461.7004 -890.627 451.7004 Z" clip-path="url(#clipPath2)"/>
      <text x="-883.627" xml:space="preserve" y="445.8547" clip-path="url(#clipPath2)" font-family="sans-serif" stroke="none">main()</text>
    </g>
    <g fill="rgb(204,255,204)" text-rendering="geometricPrecision" shape-rendering="geometricPrecision" transform="matrix(1,0,0,1,998,-21)" stroke="rgb(204,255,204)">
      <path d="M-617.155 431.7004 Q-617.155 421.7004 -607.155 421.7004 L-546.2761 421.7004 Q-536.2761 421.7004 -536.2761 431.7004 L-536.2761 451.7004 Q-536.2761 461.7004 -546.2761 461.7004 L-607.155 461.7004 Q-617.155 461.7004 -617.155 451.7004 Z" stroke="none" clip-path="url(#clipPath2)"/>
    </g>
    <g text-rendering="geometricPrecision" stroke-miterlimit="1.45" shape-rendering="geometricPrecision" transform="matrix(1,0,0,1,998,-21)" stroke-linecap="butt">
      <path fill="none" d="M-617.155 431.7004 Q-617.155 421.7004 -607.155 421.7004 L-546.2761 421.7004 Q-536.2761 421.7004 -536.2761 431.7004 L-536.2761 451.7004 Q-536.2761 461.7004 -546.2761 461.7004 L-607.155 461.7004 Q-617.155 461.7004 -617.155 451.7004 Z" clip-path="url(#clipPath2)"/>
      <text x="-610.155" xml:space="preserve" y="445.8547" clip-path="url(#clipPath2)" font-family="sans-serif" stroke="none">core_task()</text>
    </g>
    <g fill="rgb(204,255,204)" text-rendering="geometricPrecision" shape-rendering="geometricPrecision" transform="matrix(1,0,0,1,998,-21)" stroke="rgb(204,255,204)">
      <path d="M-905.252 567.4519 Q-905.252 557.4519 -895.252 557.4519 L-834.2734 557.4519 Q-824.2734 557.4519 -824.2734 567.4519 L-824.2734 587.4519 Q-824.2734 597.4519 -834.2734 597.4519 L-895.252 597.4519 Q-905.252 597.4519 -905.252 587.4519 Z" stroke="none" clip-path="url(#clipPath2)"/>
    </g>
    <g text-rendering="geometricPrecision" stroke-miterlimit="1.45" shape-rendering="geometricPrecision" transform="matrix(1,0,0,1,998,-21)" stroke-linecap="butt">
      <path fill="none" d="M-905.252 567.4519 Q-905.252 557.4519 -895.252 557.4519 L-834.2734 557.4519 Q-824.2734 557.4519 -824.2734 567.4519 L-824.2734 587.4519 Q-824.2734 597.4519 -834.2734 597.4519 L-895.252 597.4519 Q-905.252 597.4519 -905.252 587.4519 Z" clip-path="url(#clipPath2)"/>
      <text x="-898.252" xml:space="preserve" y="581.6062" clip-path="url(#clipPath2)" font-family="sans-serif" stroke="none">operation()</text>
    </g>
    <g fill="white" text-rendering="geometricPrecision" shape-rendering="geometricPrecision" transform="matrix(1,0,0,1,998,-21)" stroke="white">
      <path d="M-761.8776 431.7004 Q-761.8776 421.7004 -751.8776 421.7004 L-657.155 421.7004 Q-647.155 421.7004 -647.155 431.7004 L-647.155 451.7004 Q-647.155 461.7004 -657.155 461.7004 L-751.8776 461.7004 Q-761.8776 461.7004 -761.8776 451.7004 Z" stroke="none" clip-path="url(#clipPath2)"/>
    </g>
    <g text-rendering="geometricPrecision" stroke-miterlimit="1.45" shape-rendering="geometricPrecision" transform="matrix(1,0,0,1,998,-21)" stroke-linecap="butt">
      <path fill="none" d="M-761.8776 431.7004 Q-761.8776 421.7004 -751.8776 421.7004 L-657.155 421.7004 Q-647.155 421.7004 -647.155 431.7004 L-647.155 451.7004 Q-647.155 461.7004 -657.155 461.7004 L-751.8776 461.7004 Q-761.8776 461.7004 -761.8776 451.7004 Z" clip-path="url(#clipPath2)"/>
      <text x="-754.8776" xml:space="preserve" y="445.8547" clip-path="url(#clipPath2)" font-family="sans-serif" stroke="none">struct fcom_core</text>
    </g>
    <g fill="rgb(204,255,204)" text-rendering="geometricPrecision" shape-rendering="geometricPrecision" transform="matrix(1,0,0,1,998,-21)" stroke="rgb(204,255,204)">
      <path d="M-804.011 116.3274 Q-804.011 106.3274 -794.011 106.3274 L-731.2043 106.3274 Q-721.2043 106.3274 -721.2043 116.3274 L-721.2043 136.3274 Q-721.2043 146.3274 -731.2043 146.3274 L-794.011 146.3274 Q-804.011 146.3274 -804.011 136.3274 Z" stroke="none" clip-path="url(#clipPath2)"/>
    </g>
    <g text-rendering="geometricPrecision" stroke-miterlimit="1.45" shape-rendering="geometricPrecision" transform="matrix(1,0,0,1,998,-21)" stroke-linecap="butt">
      <path fill="none" d="M-804.011 116.3274 Q-804.011 106.3274 -794.011 106.3274 L-731.2043 106.3274 Q-721.2043 106.3274 -721.2043 116.3274 L-721.2043 136.3274 Q-721.2043 146.3274 -731.2043 146.3274 L-794.011 146.3274 Q-804.011 146.3274 -804.011 136.3274 Z" clip-path="url(#clipPath2)"/>
      <text x="-797.011" xml:space="preserve" y="130.4817" clip-path="url(#clipPath2)" font-family="sans-serif" stroke="none">args_read()</text>
    </g>
    <g fill="rgb(204,255,204)" text-rendering="geometricPrecision" shape-rendering="geometricPrecision" transform="matrix(1,0,0,1,998,-21)" stroke="rgb(204,255,204)">
      <path d="M-890.627 116.3274 Q-890.627 106.3274 -880.627 106.3274 L-847.2812 106.3274 Q-837.2812 106.3274 -837.2812 116.3274 L-837.2812 136.3274 Q-837.2812 146.3274 -847.2812 146.3274 L-880.627 146.3274 Q-890.627 146.3274 -890.627 136.3274 Z" stroke="none" clip-path="url(#clipPath2)"/>
    </g>
    <g text-rendering="geometricPrecision" stroke-miterlimit="1.45" shape-rendering="geometricPrecision" transform="matrix(1,0,0,1,998,-21)" stroke-linecap="butt">
      <path fill="none" d="M-890.627 116.3274 Q-890.627 106.3274 -880.627 106.3274 L-847.2812 106.3274 Q-837.2812 106.3274 -837.2812 116.3274 L-837.2812 136.3274 Q-837.2812 146.3274 -847.2812 146.3274 L-880.627 146.3274 Q-890.627 146.3274 -890.627 136.3274 Z" clip-path="url(#clipPath2)"/>
      <text x="-883.627" xml:space="preserve" y="130.4817" clip-path="url(#clipPath2)" font-family="sans-serif" stroke="none">main()</text>
    </g>
    <g fill="silver" text-rendering="geometricPrecision" shape-rendering="geometricPrecision" transform="matrix(1,0,0,1,998,-21)" stroke="silver">
      <path d="M-977.0944 46.3274 Q-977.0944 36.3274 -967.0944 36.3274 L-943.2408 36.3274 Q-933.2408 36.3274 -933.2408 46.3274 L-933.2408 66.3274 Q-933.2408 76.3274 -943.2408 76.3274 L-967.0944 76.3274 Q-977.0944 76.3274 -977.0944 66.3274 Z" stroke="none" clip-path="url(#clipPath2)"/>
    </g>
    <g text-rendering="geometricPrecision" stroke-miterlimit="1.45" shape-rendering="geometricPrecision" transform="matrix(1,0,0,1,998,-21)" stroke-linecap="butt">
      <path fill="none" d="M-977.0944 46.3274 Q-977.0944 36.3274 -967.0944 36.3274 L-943.2408 36.3274 Q-933.2408 36.3274 -933.2408 46.3274 L-933.2408 66.3274 Q-933.2408 76.3274 -943.2408 76.3274 L-967.0944 76.3274 Q-977.0944 76.3274 -977.0944 66.3274 Z" clip-path="url(#clipPath2)"/>
      <text x="-970.0944" xml:space="preserve" y="60.4817" clip-path="url(#clipPath2)" font-family="sans-serif" stroke="none">fcom</text>
    </g>
    <g fill="white" text-rendering="geometricPrecision" shape-rendering="geometricPrecision" transform="matrix(1,0,0,1,998,-21)" stroke="white">
      <path d="M-980.3522 116.3274 Q-980.3522 106.3274 -970.3522 106.3274 L-939.983 106.3274 Q-929.983 106.3274 -929.983 116.3274 L-929.983 136.3274 Q-929.983 146.3274 -939.983 146.3274 L-970.3522 146.3274 Q-980.3522 146.3274 -980.3522 136.3274 Z" stroke="none" clip-path="url(#clipPath2)"/>
    </g>
    <g text-rendering="geometricPrecision" stroke-miterlimit="1.45" shape-rendering="geometricPrecision" transform="matrix(1,0,0,1,998,-21)" stroke-linecap="butt">
      <path fill="none" d="M-980.3522 116.3274 Q-980.3522 106.3274 -970.3522 106.3274 L-939.983 106.3274 Q-929.983 106.3274 -929.983 116.3274 L-929.983 136.3274 Q-929.983 146.3274 -939.983 146.3274 L-970.3522 146.3274 Q-980.3522 146.3274 -980.3522 136.3274 Z" clip-path="url(#clipPath2)"/>
      <text x="-973.3522" xml:space="preserve" y="130.4817" clip-path="url(#clipPath2)" font-family="sans-serif" stroke="none">argv[]</text>
    </g>
    <g fill="white" text-rendering="geometricPrecision" shape-rendering="geometricPrecision" transform="matrix(1,0,0,1,998,-21)" stroke="white">
      <path d="M-905.252 46.3274 Q-905.252 36.3274 -895.252 36.3274 L-832.6562 36.3274 Q-822.6562 36.3274 -822.6562 46.3274 L-822.6562 66.3274 Q-822.6562 76.3274 -832.6562 76.3274 L-895.252 76.3274 Q-905.252 76.3274 -905.252 66.3274 Z" stroke="none" clip-path="url(#clipPath2)"/>
    </g>
    <g text-rendering="geometricPrecision" stroke-miterlimit="1.45" shape-rendering="geometricPrecision" transform="matrix(1,0,0,1,998,-21)" stroke-linecap="butt">
      <path fill="none" d="M-905.252 46.3274 Q-905.252 36.3274 -895.252 36.3274 L-832.6562 36.3274 Q-822.6562 36.3274 -822.6562 46.3274 L-822.6562 66.3274 Q-822.6562 76.3274 -832.6562 76.3274 L-895.252 76.3274 Q-905.252 76.3274 -905.252 66.3274 Z" clip-path="url(#clipPath2)"/>
      <text x="-898.252" xml:space="preserve" y="60.4817" clip-path="url(#clipPath2)" font-family="sans-serif" stroke="none">struct main</text>
    </g>
    <g fill="white" text-rendering="geometricPrecision" shape-rendering="geometricPrecision" transform="matrix(1,0,0,1,998,-21)" stroke="white">
      <path d="M-801.9924 172.0074 Q-801.9924 162.0074 -791.9924 162.0074 L-733.2229 162.0074 Q-723.2229 162.0074 -723.2229 172.0074 L-723.2229 192.0074 Q-723.2229 202.0074 -733.2229 202.0074 L-791.9924 202.0074 Q-801.9924 202.0074 -801.9924 192.0074 Z" stroke="none" clip-path="url(#clipPath2)"/>
    </g>
    <g text-rendering="geometricPrecision" stroke-miterlimit="1.45" shape-rendering="geometricPrecision" transform="matrix(1,0,0,1,998,-21)" stroke-linecap="butt">
      <path fill="none" d="M-801.9924 172.0074 Q-801.9924 162.0074 -791.9924 162.0074 L-733.2229 162.0074 Q-723.2229 162.0074 -723.2229 172.0074 L-723.2229 192.0074 Q-723.2229 202.0074 -733.2229 202.0074 L-791.9924 202.0074 Q-801.9924 202.0074 -801.9924 192.0074 Z" clip-path="url(#clipPath2)"/>
      <text x="-794.9924" xml:space="preserve" y="186.1617" clip-path="url(#clipPath2)" font-family="sans-serif" stroke="none">struct args</text>
    </g>
    <g fill="rgb(204,255,204)" text-rendering="geometricPrecision" shape-rendering="geometricPrecision" transform="matrix(1,0,0,1,998,-21)" stroke="rgb(204,255,204)">
      <path d="M-890.627 200.7808 Q-890.627 190.7808 -880.627 190.7808 L-847.2812 190.7808 Q-837.2812 190.7808 -837.2812 200.7808 L-837.2812 220.7808 Q-837.2812 230.7808 -847.2812 230.7808 L-880.627 230.7808 Q-890.627 230.7808 -890.627 220.7808 Z" stroke="none" clip-path="url(#clipPath2)"/>
    </g>
    <g text-rendering="geometricPrecision" stroke-miterlimit="1.45" shape-rendering="geometricPrecision" transform="matrix(1,0,0,1,998,-21)" stroke-linecap="butt">
      <path fill="none" d="M-890.627 200.7808 Q-890.627 190.7808 -880.627 190.7808 L-847.2812 190.7808 Q-837.2812 190.7808 -837.2812 200.7808 L-837.2812 220.7808 Q-837.2812 230.7808 -847.2812 230.7808 L-880.627 230.7808 Q-890.627 230.7808 -890.627 220.7808 Z" clip-path="url(#clipPath2)"/>
      <text x="-883.627" xml:space="preserve" y="214.9351" clip-path="url(#clipPath2)" font-family="sans-serif" stroke="none">main()</text>
    </g>
    <g fill="white" text-rendering="geometricPrecision" shape-rendering="geometricPrecision" transform="matrix(1,0,0,1,998,-21)" stroke="white">
      <path d="M-794.2734 567.4519 Q-794.2734 557.4519 -784.2734 557.4519 L-655.9121 557.4519 Q-645.9121 557.4519 -645.9121 567.4519 L-645.9121 587.4519 Q-645.9121 597.4519 -655.9121 597.4519 L-784.2734 597.4519 Q-794.2734 597.4519 -794.2734 587.4519 Z" stroke="none" clip-path="url(#clipPath2)"/>
    </g>
    <g text-rendering="geometricPrecision" stroke-miterlimit="1.45" shape-rendering="geometricPrecision" transform="matrix(1,0,0,1,998,-21)" stroke-linecap="butt">
      <path fill="none" d="M-794.2734 567.4519 Q-794.2734 557.4519 -784.2734 557.4519 L-655.9121 557.4519 Q-645.9121 557.4519 -645.9121 567.4519 L-645.9121 587.4519 Q-645.9121 597.4519 -655.9121 597.4519 L-784.2734 597.4519 Q-794.2734 597.4519 -794.2734 587.4519 Z" clip-path="url(#clipPath2)"/>
      <text x="-787.2734" xml:space="preserve" y="581.6062" clip-path="url(#clipPath2)" font-family="sans-serif" stroke="none">struct fcom_command</text>
    </g>
    <g fill="rgb(204,255,204)" text-rendering="geometricPrecision" shape-rendering="geometricPrecision" transform="matrix(1,0,0,1,998,-21)" stroke="rgb(204,255,204)">
      <path d="M-616.9792 567.4519 Q-616.9792 557.4519 -606.9792 557.4519 L-551.5671 557.4519 Q-541.5671 557.4519 -541.5671 567.4519 L-541.5671 587.4519 Q-541.5671 597.4519 -551.5671 597.4519 L-606.9792 597.4519 Q-616.9792 597.4519 -616.9792 587.4519 Z" stroke="none" clip-path="url(#clipPath2)"/>
    </g>
    <g text-rendering="geometricPrecision" stroke-miterlimit="1.45" shape-rendering="geometricPrecision" transform="matrix(1,0,0,1,998,-21)" stroke-linecap="butt">
      <path fill="none" d="M-616.9792 567.4519 Q-616.9792 557.4519 -606.9792 557.4519 L-551.5671 557.4519 Q-541.5671 557.4519 -541.5671 567.4519 L-541.5671 587.4519 Q-541.5671 597.4519 -551.5671 597.4519 L-606.9792 597.4519 Q-616.9792 597.4519 -616.9792 587.4519 Z" clip-path="url(#clipPath2)"/>
      <text x="-609.9792" xml:space="preserve" y="581.6062" clip-path="url(#clipPath2)" font-family="sans-serif" stroke="none">cmd_run()</text>
    </g>
    <g fill="rgb(204,255,204)" text-rendering="geometricPrecision" shape-rendering="geometricPrecision" transform="matrix(1,0,0,1,998,-21)" stroke="rgb(204,255,204)">
      <path d="M-511.0779 567.4519 Q-511.0779 557.4519 -501.0779 557.4519 L-420.7575 557.4519 Q-410.7575 557.4519 -410.7575 567.4519 L-410.7575 587.4519 Q-410.7575 597.4519 -420.7575 597.4519 L-501.0779 597.4519 Q-511.0779 597.4519 -511.0779 587.4519 Z" stroke="none" clip-path="url(#clipPath2)"/>
    </g>
    <g text-rendering="geometricPrecision" stroke-miterlimit="1.45" shape-rendering="geometricPrecision" transform="matrix(1,0,0,1,998,-21)" stroke-linecap="butt">
      <path fill="none" d="M-511.0779 567.4519 Q-511.0779 557.4519 -501.0779 557.4519 L-420.7575 557.4519 Q-410.7575 557.4519 -410.7575 567.4519 L-410.7575 587.4519 Q-410.7575 597.4519 -420.7575 597.4519 L-501.0779 597.4519 Q-511.0779 597.4519 -511.0779 587.4519 Z" clip-path="url(#clipPath2)"/>
      <text x="-504.0779" xml:space="preserve" y="581.6062" clip-path="url(#clipPath2)" font-family="sans-serif" stroke="none">com_provide()</text>
    </g>
    <g fill="silver" text-rendering="geometricPrecision" shape-rendering="geometricPrecision" transform="matrix(1,0,0,1,998,-21)" stroke="silver">
      <path d="M-176.9291 567.4519 Q-176.9291 557.4519 -166.9291 557.4519 L-118.8471 557.4519 Q-108.8471 557.4519 -108.8471 567.4519 L-108.8471 587.4519 Q-108.8471 597.4519 -118.8471 597.4519 L-166.9291 597.4519 Q-176.9291 597.4519 -176.9291 587.4519 Z" stroke="none" clip-path="url(#clipPath2)"/>
    </g>
    <g text-rendering="geometricPrecision" stroke-miterlimit="1.45" shape-rendering="geometricPrecision" transform="matrix(1,0,0,1,998,-21)" stroke-linecap="butt">
      <path fill="none" d="M-176.9291 567.4519 Q-176.9291 557.4519 -166.9291 557.4519 L-118.8471 557.4519 Q-108.8471 557.4519 -108.8471 567.4519 L-108.8471 587.4519 Q-108.8471 597.4519 -118.8471 597.4519 L-166.9291 597.4519 Q-176.9291 597.4519 -176.9291 587.4519 Z" clip-path="url(#clipPath2)"/>
      <text x="-169.9291" xml:space="preserve" y="581.6062" clip-path="url(#clipPath2)" font-family="sans-serif" stroke="none">MOD1.so</text>
    </g>
    <g fill="rgb(204,255,204)" text-rendering="geometricPrecision" shape-rendering="geometricPrecision" transform="matrix(1,0,0,1,998,-21)" stroke="rgb(204,255,204)">
      <path d="M-511.0779 637.4519 Q-511.0779 627.4519 -501.0779 627.4519 L-420.7575 627.4519 Q-410.7575 627.4519 -410.7575 637.4519 L-410.7575 657.4519 Q-410.7575 667.4519 -420.7575 667.4519 L-501.0779 667.4519 Q-511.0779 667.4519 -511.0779 657.4519 Z" stroke="none" clip-path="url(#clipPath2)"/>
    </g>
    <g text-rendering="geometricPrecision" stroke-miterlimit="1.45" shape-rendering="geometricPrecision" transform="matrix(1,0,0,1,998,-21)" stroke-linecap="butt">
      <path fill="none" d="M-511.0779 637.4519 Q-511.0779 627.4519 -501.0779 627.4519 L-420.7575 627.4519 Q-410.7575 627.4519 -410.7575 637.4519 L-410.7575 657.4519 Q-410.7575 667.4519 -420.7575 667.4519 L-501.0779 667.4519 Q-511.0779 667.4519 -511.0779 657.4519 Z" clip-path="url(#clipPath2)"/>
      <text x="-504.0779" xml:space="preserve" y="651.6062" clip-path="url(#clipPath2)" font-family="sans-serif" stroke="none">com_provide()</text>
    </g>
    <g fill="rgb(204,255,204)" text-rendering="geometricPrecision" shape-rendering="geometricPrecision" transform="matrix(1,0,0,1,998,-21)" stroke="rgb(204,255,204)">
      <path d="M-645.9099 794.2 Q-645.9099 784.2 -635.9099 784.2 L-536.9802 784.2 Q-526.9802 784.2 -526.9802 794.2 L-526.9802 814.2 Q-526.9802 824.2 -536.9802 824.2 L-635.9099 824.2 Q-645.9099 824.2 -645.9099 814.2 Z" stroke="none" clip-path="url(#clipPath2)"/>
    </g>
    <g text-rendering="geometricPrecision" stroke-miterlimit="1.45" shape-rendering="geometricPrecision" transform="matrix(1,0,0,1,998,-21)" stroke-linecap="butt">
      <path fill="none" d="M-645.9099 794.2 Q-645.9099 784.2 -635.9099 784.2 L-536.9802 784.2 Q-526.9802 784.2 -526.9802 794.2 L-526.9802 814.2 Q-526.9802 824.2 -536.9802 824.2 L-635.9099 824.2 Q-645.9099 824.2 -645.9099 814.2 Z" clip-path="url(#clipPath2)"/>
      <text x="-638.9099" xml:space="preserve" y="808.3543" clip-path="url(#clipPath2)" font-family="sans-serif" stroke="none">cmd_input_next()</text>
    </g>
    <g fill="white" text-rendering="geometricPrecision" shape-rendering="geometricPrecision" transform="matrix(1,0,0,1,998,-21)" stroke="white">
      <path d="M-470.9028 794.2 Q-470.9028 784.2 -460.9028 784.2 L-332.5415 784.2 Q-322.5415 784.2 -322.5415 794.2 L-322.5415 814.2 Q-322.5415 824.2 -332.5415 824.2 L-460.9028 824.2 Q-470.9028 824.2 -470.9028 814.2 Z" stroke="none" clip-path="url(#clipPath2)"/>
    </g>
    <g text-rendering="geometricPrecision" stroke-miterlimit="1.45" shape-rendering="geometricPrecision" transform="matrix(1,0,0,1,998,-21)" stroke-linecap="butt">
      <path fill="none" d="M-470.9028 794.2 Q-470.9028 784.2 -460.9028 784.2 L-332.5415 784.2 Q-322.5415 784.2 -322.5415 794.2 L-322.5415 814.2 Q-322.5415 824.2 -332.5415 824.2 L-460.9028 824.2 Q-470.9028 824.2 -470.9028 814.2 Z" clip-path="url(#clipPath2)"/>
      <text x="-463.9028" xml:space="preserve" y="808.3543" clip-path="url(#clipPath2)" font-family="sans-serif" stroke="none">struct fcom_command</text>
    </g>
    <g fill="rgb(204,255,204)" text-rendering="geometricPrecision" shape-rendering="geometricPrecision" transform="matrix(1,0,0,1,998,-21)" stroke="rgb(204,255,204)">
      <path d="M-159.1399 724.2 Q-159.1399 714.2 -149.1399 714.2 L-77.1047 714.2 Q-67.1047 714.2 -67.1047 724.2 L-67.1047 744.2 Q-67.1047 754.2 -77.1047 754.2 L-149.1399 754.2 Q-159.1399 754.2 -159.1399 744.2 Z" stroke="none" clip-path="url(#clipPath2)"/>
    </g>
    <g text-rendering="geometricPrecision" stroke-miterlimit="1.45" shape-rendering="geometricPrecision" transform="matrix(1,0,0,1,998,-21)" stroke-linecap="butt">
      <path fill="none" d="M-159.1399 724.2 Q-159.1399 714.2 -149.1399 714.2 L-77.1047 714.2 Q-67.1047 714.2 -67.1047 724.2 L-67.1047 744.2 Q-67.1047 754.2 -77.1047 754.2 L-149.1399 754.2 Q-159.1399 754.2 -159.1399 744.2 Z" clip-path="url(#clipPath2)"/>
      <text x="-152.1399" xml:space="preserve" y="738.3543" clip-path="url(#clipPath2)" font-family="sans-serif" stroke="none">OP1_create()</text>
    </g>
    <g fill="white" text-rendering="geometricPrecision" shape-rendering="geometricPrecision" transform="matrix(1,0,0,1,998,-21)" stroke="white">
      <path d="M-450.0932 867.1 Q-450.0932 857.1 -440.0932 857.1 L-353.351 857.1 Q-343.351 857.1 -343.351 867.1 L-343.351 887.1 Q-343.351 897.1 -353.351 897.1 L-440.0932 897.1 Q-450.0932 897.1 -450.0932 887.1 Z" stroke="none" clip-path="url(#clipPath2)"/>
    </g>
    <g text-rendering="geometricPrecision" stroke-miterlimit="1.45" shape-rendering="geometricPrecision" transform="matrix(1,0,0,1,998,-21)" stroke-linecap="butt">
      <path fill="none" d="M-450.0932 867.1 Q-450.0932 857.1 -440.0932 857.1 L-353.351 857.1 Q-343.351 857.1 -343.351 867.1 L-343.351 887.1 Q-343.351 897.1 -353.351 897.1 L-440.0932 897.1 Q-450.0932 897.1 -450.0932 887.1 Z" clip-path="url(#clipPath2)"/>
      <text x="-443.0932" xml:space="preserve" y="881.2543" clip-path="url(#clipPath2)" font-family="sans-serif" stroke="none">struct fcom_file</text>
    </g>
    <g fill="rgb(204,255,204)" text-rendering="geometricPrecision" shape-rendering="geometricPrecision" transform="matrix(1,0,0,1,998,-21)" stroke="rgb(204,255,204)">
      <path d="M-611.8932 867.1 Q-611.8932 857.1 -601.8932 857.1 L-568.2546 857.1 Q-558.2546 857.1 -558.2546 867.1 L-558.2546 887.1 Q-558.2546 897.1 -568.2546 897.1 L-601.8932 897.1 Q-611.8932 897.1 -611.8932 887.1 Z" stroke="none" clip-path="url(#clipPath2)"/>
    </g>
    <g text-rendering="geometricPrecision" stroke-miterlimit="1.45" shape-rendering="geometricPrecision" transform="matrix(1,0,0,1,998,-21)" stroke-linecap="butt">
      <path fill="none" d="M-611.8932 867.1 Q-611.8932 857.1 -601.8932 857.1 L-568.2546 857.1 Q-558.2546 857.1 -558.2546 867.1 L-558.2546 887.1 Q-558.2546 897.1 -568.2546 897.1 L-601.8932 897.1 Q-611.8932 897.1 -611.8932 887.1 Z" clip-path="url(#clipPath2)"/>
      <text x="-604.8932" xml:space="preserve" y="881.2543" clip-path="url(#clipPath2)" font-family="sans-serif" stroke="none">file_*()</text>
    </g>
    <g fill="rgb(204,255,204)" text-rendering="geometricPrecision" shape-rendering="geometricPrecision" transform="matrix(1,0,0,1,998,-21)" stroke="rgb(204,255,204)">
      <path d="M-179.8002 807.1 Q-179.8002 797.1 -169.8002 797.1 L-115.976 797.1 Q-105.976 797.1 -105.976 807.1 L-105.976 881.2 Q-105.976 891.2 -115.976 891.2 L-169.8002 891.2 Q-179.8002 891.2 -179.8002 881.2 Z" stroke="none" clip-path="url(#clipPath2)"/>
    </g>
    <g text-rendering="geometricPrecision" stroke-miterlimit="1.45" shape-rendering="geometricPrecision" transform="matrix(1,0,0,1,998,-21)" stroke-linecap="butt">
      <path fill="none" d="M-179.8002 807.1 Q-179.8002 797.1 -169.8002 797.1 L-115.976 797.1 Q-105.976 797.1 -105.976 807.1 L-105.976 881.2 Q-105.976 891.2 -115.976 891.2 L-169.8002 891.2 Q-179.8002 891.2 -179.8002 881.2 Z" clip-path="url(#clipPath2)"/>
      <text x="-172.8002" xml:space="preserve" y="848.3043" clip-path="url(#clipPath2)" font-family="sans-serif" stroke="none">OP1_run()</text>
    </g>
    <g fill="white" text-rendering="geometricPrecision" shape-rendering="geometricPrecision" transform="matrix(1,0,0,1,998,-21)" stroke="white">
      <path d="M-794.2734 618.0519 Q-794.2734 608.0519 -784.2734 608.0519 L-667.6719 608.0519 Q-657.6719 608.0519 -657.6719 618.0519 L-657.6719 638.0519 Q-657.6719 648.0519 -667.6719 648.0519 L-784.2734 648.0519 Q-794.2734 648.0519 -794.2734 638.0519 Z" stroke="none" clip-path="url(#clipPath2)"/>
    </g>
    <g text-rendering="geometricPrecision" stroke-miterlimit="1.45" shape-rendering="geometricPrecision" transform="matrix(1,0,0,1,998,-21)" stroke-linecap="butt">
      <path fill="none" d="M-794.2734 618.0519 Q-794.2734 608.0519 -784.2734 608.0519 L-667.6719 608.0519 Q-657.6719 608.0519 -657.6719 618.0519 L-657.6719 638.0519 Q-657.6719 648.0519 -667.6719 648.0519 L-784.2734 648.0519 Q-794.2734 648.0519 -794.2734 638.0519 Z" clip-path="url(#clipPath2)"/>
      <text x="-787.2734" xml:space="preserve" y="632.2062" clip-path="url(#clipPath2)" font-family="sans-serif" stroke="none">struct fcom_cominfo</text>
    </g>
    <g fill="white" text-rendering="geometricPrecision" shape-rendering="geometricPrecision" transform="matrix(1,0,0,1,998,-21)" stroke="white">
      <path d="M-373.2239 724.2 Q-373.2239 714.2 -363.2239 714.2 L-237.1419 714.2 Q-227.1419 714.2 -227.1419 724.2 L-227.1419 744.2 Q-227.1419 754.2 -237.1419 754.2 L-363.2239 754.2 Q-373.2239 754.2 -373.2239 744.2 Z" stroke="none" clip-path="url(#clipPath2)"/>
    </g>
    <g text-rendering="geometricPrecision" stroke-miterlimit="1.45" shape-rendering="geometricPrecision" transform="matrix(1,0,0,1,998,-21)" stroke-linecap="butt">
      <path fill="none" d="M-373.2239 724.2 Q-373.2239 714.2 -363.2239 714.2 L-237.1419 714.2 Q-227.1419 714.2 -227.1419 724.2 L-227.1419 744.2 Q-227.1419 754.2 -237.1419 754.2 L-363.2239 754.2 Q-373.2239 754.2 -373.2239 744.2 Z" clip-path="url(#clipPath2)"/>
      <text x="-366.2239" xml:space="preserve" y="738.3543" clip-path="url(#clipPath2)" font-family="sans-serif" stroke="none">struct fcom_operation</text>
    </g>
    <g fill="rgb(204,255,204)" text-rendering="geometricPrecision" shape-rendering="geometricPrecision" transform="matrix(1,0,0,1,998,-21)" stroke="rgb(204,255,204)">
      <path d="M-616.9792 724.2 Q-616.9792 714.2 -606.9792 714.2 L-551.5671 714.2 Q-541.5671 714.2 -541.5671 724.2 L-541.5671 744.2 Q-541.5671 754.2 -551.5671 754.2 L-606.9792 754.2 Q-616.9792 754.2 -616.9792 744.2 Z" stroke="none" clip-path="url(#clipPath2)"/>
    </g>
    <g text-rendering="geometricPrecision" stroke-miterlimit="1.45" shape-rendering="geometricPrecision" transform="matrix(1,0,0,1,998,-21)" stroke-linecap="butt">
      <path fill="none" d="M-616.9792 724.2 Q-616.9792 714.2 -606.9792 714.2 L-551.5671 714.2 Q-541.5671 714.2 -541.5671 724.2 L-541.5671 744.2 Q-541.5671 754.2 -551.5671 754.2 L-606.9792 754.2 Q-616.9792 754.2 -616.9792 744.2 Z" clip-path="url(#clipPath2)"/>
      <text x="-609.9792" xml:space="preserve" y="738.3543" clip-path="url(#clipPath2)" font-family="sans-serif" stroke="none">cmd_run()</text>
    </g>
    <g fill="silver" text-rendering="geometricPrecision" shape-rendering="geometricPrecision" transform="matrix(1,0,0,1,998,-21)" stroke="silver">
      <path d="M16.5609 985.4332 Q16.5609 975.4332 26.5609 975.4332 L74.6429 975.4332 Q84.6429 975.4332 84.6429 985.4332 L84.6429 1005.4332 Q84.6429 1015.4332 74.6429 1015.4332 L26.5609 1015.4332 Q16.5609 1015.4332 16.5609 1005.4332 Z" stroke="none" clip-path="url(#clipPath2)"/>
    </g>
    <g text-rendering="geometricPrecision" stroke-miterlimit="1.45" shape-rendering="geometricPrecision" transform="matrix(1,0,0,1,998,-21)" stroke-linecap="butt">
      <path fill="none" d="M16.5609 985.4332 Q16.5609 975.4332 26.5609 975.4332 L74.6429 975.4332 Q84.6429 975.4332 84.6429 985.4332 L84.6429 1005.4332 Q84.6429 1015.4332 74.6429 1015.4332 L26.5609 1015.4332 Q16.5609 1015.4332 16.5609 1005.4332 Z" clip-path="url(#clipPath2)"/>
      <text x="23.5609" xml:space="preserve" y="999.5875" clip-path="url(#clipPath2)" font-family="sans-serif" stroke="none">MOD2.so</text>
    </g>
    <g fill="rgb(204,255,204)" text-rendering="geometricPrecision" shape-rendering="geometricPrecision" transform="matrix(1,0,0,1,998,-21)" stroke="rgb(204,255,204)">
      <path d="M-635.2341 953.2 Q-635.2341 943.2 -625.2341 943.2 L-544.9138 943.2 Q-534.9138 943.2 -534.9138 953.2 L-534.9138 973.2 Q-534.9138 983.2 -544.9138 983.2 L-625.2341 983.2 Q-635.2341 983.2 -635.2341 973.2 Z" stroke="none" clip-path="url(#clipPath2)"/>
    </g>
    <g text-rendering="geometricPrecision" stroke-miterlimit="1.45" shape-rendering="geometricPrecision" transform="matrix(1,0,0,1,998,-21)" stroke-linecap="butt">
      <path fill="none" d="M-635.2341 953.2 Q-635.2341 943.2 -625.2341 943.2 L-544.9138 943.2 Q-534.9138 943.2 -534.9138 953.2 L-534.9138 973.2 Q-534.9138 983.2 -544.9138 983.2 L-625.2341 983.2 Q-635.2341 983.2 -635.2341 973.2 Z" clip-path="url(#clipPath2)"/>
      <text x="-628.2341" xml:space="preserve" y="967.3543" clip-path="url(#clipPath2)" font-family="sans-serif" stroke="none">com_provide()</text>
    </g>
    <g fill="white" text-rendering="geometricPrecision" shape-rendering="geometricPrecision" transform="matrix(1,0,0,1,998,-21)" stroke="white">
      <path d="M-458.0737 918.4133 Q-458.0737 908.4133 -448.0737 908.4133 L-353.351 908.4133 Q-343.351 908.4133 -343.351 918.4133 L-343.351 938.4133 Q-343.351 948.4133 -353.351 948.4133 L-448.0737 948.4133 Q-458.0737 948.4133 -458.0737 938.4133 Z" stroke="none" clip-path="url(#clipPath2)"/>
    </g>
    <g text-rendering="geometricPrecision" stroke-miterlimit="1.45" shape-rendering="geometricPrecision" transform="matrix(1,0,0,1,998,-21)" stroke-linecap="butt">
      <path fill="none" d="M-458.0737 918.4133 Q-458.0737 908.4133 -448.0737 908.4133 L-353.351 908.4133 Q-343.351 908.4133 -343.351 918.4133 L-343.351 938.4133 Q-343.351 948.4133 -353.351 948.4133 L-448.0737 948.4133 Q-458.0737 948.4133 -458.0737 938.4133 Z" clip-path="url(#clipPath2)"/>
      <text x="-451.0737" xml:space="preserve" y="932.5676" clip-path="url(#clipPath2)" font-family="sans-serif" stroke="none">struct fcom_core</text>
    </g>
    <g fill="white" text-rendering="geometricPrecision" shape-rendering="geometricPrecision" transform="matrix(1,0,0,1,998,-21)" stroke="white">
      <path d="M-165.4311 928.4133 Q-165.4311 921.4133 -158.4311 921.4133 L-127.3451 921.4133 Q-120.3451 921.4133 -120.3451 928.4133 L-120.3451 928.4133 Q-120.3451 935.4133 -127.3451 935.4133 L-158.4311 935.4133 Q-165.4311 935.4133 -165.4311 928.4133 Z" stroke="none" clip-path="url(#clipPath2)"/>
    </g>
    <g text-rendering="geometricPrecision" stroke-miterlimit="1.45" shape-rendering="geometricPrecision" transform="matrix(1,0,0,1,998,-21)" stroke-linecap="butt">
      <path fill="none" d="M-165.4311 928.4133 Q-165.4311 921.4133 -158.4311 921.4133 L-127.3451 921.4133 Q-120.3451 921.4133 -120.3451 928.4133 L-120.3451 928.4133 Q-120.3451 935.4133 -127.3451 935.4133 L-158.4311 935.4133 Q-165.4311 935.4133 -165.4311 928.4133 Z" clip-path="url(#clipPath2)"/>
    </g>
    <g fill="white" text-rendering="geometricPrecision" shape-rendering="geometricPrecision" transform="matrix(1,0,0,1,998,-21)" stroke="white">
      <path d="M-794.7651 428.7004 Q-794.7651 421.7004 -787.7651 421.7004 L-787.7651 421.7004 Q-780.7651 421.7004 -780.7651 428.7004 L-780.7651 454.7004 Q-780.7651 461.7004 -787.7651 461.7004 L-787.7651 461.7004 Q-794.7651 461.7004 -794.7651 454.7004 Z" stroke="none" clip-path="url(#clipPath2)"/>
    </g>
    <g text-rendering="geometricPrecision" stroke-miterlimit="1.45" shape-rendering="geometricPrecision" transform="matrix(1,0,0,1,998,-21)" stroke-linecap="butt">
      <path fill="none" d="M-794.7651 428.7004 Q-794.7651 421.7004 -787.7651 421.7004 L-787.7651 421.7004 Q-780.7651 421.7004 -780.7651 428.7004 L-780.7651 454.7004 Q-780.7651 461.7004 -787.7651 461.7004 L-787.7651 461.7004 Q-794.7651 461.7004 -794.7651 454.7004 Z" clip-path="url(#clipPath2)"/>
    </g>
    <g fill="white" text-rendering="geometricPrecision" shape-rendering="geometricPrecision" transform="matrix(1,0,0,1,998,-21)" stroke="white">
      <path d="M-982.3476 1015.5354 Q-982.3476 1005.5354 -972.3476 1005.5354 L-938.0468 1005.5354 Q-928.0468 1005.5354 -928.0468 1015.5354 L-928.0468 1035.5354 Q-928.0468 1045.5354 -938.0468 1045.5354 L-972.3476 1045.5354 Q-982.3476 1045.5354 -982.3476 1035.5354 Z" stroke="none" clip-path="url(#clipPath2)"/>
    </g>
    <g text-rendering="geometricPrecision" stroke-miterlimit="1.45" shape-rendering="geometricPrecision" transform="matrix(1,0,0,1,998,-21)" stroke-linecap="butt">
      <path fill="none" d="M-982.3476 1015.5354 Q-982.3476 1005.5354 -972.3476 1005.5354 L-938.0468 1005.5354 Q-928.0468 1005.5354 -928.0468 1015.5354 L-928.0468 1035.5354 Q-928.0468 1045.5354 -938.0468 1045.5354 L-972.3476 1045.5354 Q-982.3476 1045.5354 -982.3476 1035.5354 Z" clip-path="url(#clipPath2)"/>
      <text x="-975.3476" xml:space="preserve" y="1029.6897" clip-path="url(#clipPath2)" font-family="sans-serif" stroke="none">SIGINT</text>
    </g>
    <g fill="rgb(204,255,204)" text-rendering="geometricPrecision" shape-rendering="geometricPrecision" transform="matrix(1,0,0,1,998,-21)" stroke="rgb(204,255,204)">
      <path d="M-898.0468 1015.5354 Q-898.0468 1005.5354 -888.0468 1005.5354 L-828.2402 1005.5354 Q-818.2402 1005.5354 -818.2402 1015.5354 L-818.2402 1035.5354 Q-818.2402 1045.5354 -828.2402 1045.5354 L-888.0468 1045.5354 Q-898.0468 1045.5354 -898.0468 1035.5354 Z" stroke="none" clip-path="url(#clipPath2)"/>
    </g>
    <g text-rendering="geometricPrecision" stroke-miterlimit="1.45" shape-rendering="geometricPrecision" transform="matrix(1,0,0,1,998,-21)" stroke-linecap="butt">
      <path fill="none" d="M-898.0468 1015.5354 Q-898.0468 1005.5354 -888.0468 1005.5354 L-828.2402 1005.5354 Q-818.2402 1005.5354 -818.2402 1015.5354 L-818.2402 1035.5354 Q-818.2402 1045.5354 -828.2402 1045.5354 L-888.0468 1045.5354 Q-898.0468 1045.5354 -898.0468 1035.5354 Z" clip-path="url(#clipPath2)"/>
      <text x="-891.0468" xml:space="preserve" y="1029.6897" clip-path="url(#clipPath2)" font-family="sans-serif" stroke="none">on_signal()</text>
    </g>
    <g fill="rgb(204,255,204)" text-rendering="geometricPrecision" shape-rendering="geometricPrecision" transform="matrix(1,0,0,1,998,-21)" stroke="rgb(204,255,204)">
      <path d="M-640.3288 1015.5354 Q-640.3288 1005.5354 -630.3288 1005.5354 L-539.819 1005.5354 Q-529.819 1005.5354 -529.819 1015.5354 L-529.819 1035.5354 Q-529.819 1045.5354 -539.819 1045.5354 L-630.3288 1045.5354 Q-640.3288 1045.5354 -640.3288 1035.5354 Z" stroke="none" clip-path="url(#clipPath2)"/>
    </g>
    <g text-rendering="geometricPrecision" stroke-miterlimit="1.45" shape-rendering="geometricPrecision" transform="matrix(1,0,0,1,998,-21)" stroke-linecap="butt">
      <path fill="none" d="M-640.3288 1015.5354 Q-640.3288 1005.5354 -630.3288 1005.5354 L-539.819 1005.5354 Q-529.819 1005.5354 -529.819 1015.5354 L-529.819 1035.5354 Q-529.819 1045.5354 -539.819 1045.5354 L-630.3288 1045.5354 Q-640.3288 1045.5354 -640.3288 1035.5354 Z" clip-path="url(#clipPath2)"/>
      <text x="-633.3288" xml:space="preserve" y="1029.6897" clip-path="url(#clipPath2)" font-family="sans-serif" stroke="none">com_signal_all()</text>
    </g>
    <g fill="rgb(204,255,204)" text-rendering="geometricPrecision" shape-rendering="geometricPrecision" transform="matrix(1,0,0,1,998,-21)" stroke="rgb(204,255,204)">
      <path d="M-187.476 1015.5354 Q-187.476 1005.5354 -177.476 1005.5354 L-108.3002 1005.5354 Q-98.3002 1005.5354 -98.3002 1015.5354 L-98.3002 1035.5354 Q-98.3002 1045.5354 -108.3002 1045.5354 L-177.476 1045.5354 Q-187.476 1045.5354 -187.476 1035.5354 Z" stroke="none" clip-path="url(#clipPath2)"/>
    </g>
    <g text-rendering="geometricPrecision" stroke-miterlimit="1.45" shape-rendering="geometricPrecision" transform="matrix(1,0,0,1,998,-21)" stroke-linecap="butt">
      <path fill="none" d="M-187.476 1015.5354 Q-187.476 1005.5354 -177.476 1005.5354 L-108.3002 1005.5354 Q-98.3002 1005.5354 -98.3002 1015.5354 L-98.3002 1035.5354 Q-98.3002 1045.5354 -108.3002 1045.5354 L-177.476 1045.5354 Q-187.476 1045.5354 -187.476 1035.5354 Z" clip-path="url(#clipPath2)"/>
      <text x="-180.476" xml:space="preserve" y="1029.6897" clip-path="url(#clipPath2)" font-family="sans-serif" stroke="none">OP1_signal()</text>
    </g>
    <g fill="rgb(204,255,204)" text-rendering="geometricPrecision" shape-rendering="geometricPrecision" transform="matrix(1,0,0,1,998,-21)" stroke="rgb(204,255,204)">
      <path d="M59.2205 823.6385 Q59.2205 813.6385 69.2205 813.6385 L121.8084 813.6385 Q131.8084 813.6385 131.8084 823.6385 L131.8084 864.6614 Q131.8084 874.6614 121.8084 874.6614 L69.2205 874.6614 Q59.2205 874.6614 59.2205 864.6614 Z" stroke="none" clip-path="url(#clipPath2)"/>
    </g>
    <g text-rendering="geometricPrecision" stroke-miterlimit="1.45" shape-rendering="geometricPrecision" transform="matrix(1,0,0,1,998,-21)" stroke-linecap="butt">
      <path fill="none" d="M59.2205 823.6385 Q59.2205 813.6385 69.2205 813.6385 L121.8084 813.6385 Q131.8084 813.6385 131.8084 823.6385 L131.8084 864.6614 Q131.8084 874.6614 121.8084 874.6614 L69.2205 874.6614 Q59.2205 874.6614 59.2205 864.6614 Z" clip-path="url(#clipPath2)"/>
      <text x="66.2205" xml:space="preserve" y="848.3043" clip-path="url(#clipPath2)" font-family="sans-serif" stroke="none">OP2_foo()</text>
    </g>
    <g fill="white" text-rendering="geometricPrecision" shape-rendering="geometricPrecision" transform="matrix(1,0,0,1,998,-21)" stroke="white">
      <path d="M-83.5627 834.15 Q-83.5627 824.15 -73.5627 824.15 L19.2205 824.15 Q29.2205 824.15 29.2205 834.15 L29.2205 854.15 Q29.2205 864.15 19.2205 864.15 L-73.5627 864.15 Q-83.5627 864.15 -83.5627 854.15 Z" stroke="none" clip-path="url(#clipPath2)"/>
    </g>
    <g text-rendering="geometricPrecision" stroke-miterlimit="1.45" shape-rendering="geometricPrecision" transform="matrix(1,0,0,1,998,-21)" stroke-linecap="butt">
      <path fill="none" d="M-83.5627 834.15 Q-83.5627 824.15 -73.5627 824.15 L19.2205 824.15 Q29.2205 824.15 29.2205 834.15 L29.2205 854.15 Q29.2205 864.15 19.2205 864.15 L-73.5627 864.15 Q-83.5627 864.15 -83.5627 854.15 Z" clip-path="url(#clipPath2)"/>
      <text x="-76.5627" xml:space="preserve" y="848.3043" clip-path="url(#clipPath2)" font-family="sans-serif" stroke="none">struct fcom_OP2</text>
    </g>
    <g fill="rgb(255,255,153)" text-rendering="geometricPrecision" shape-rendering="geometricPrecision" transform="matrix(1,0,0,1,998,-21)" stroke="rgb(255,255,153)">
      <ellipse rx="85.7822" ry="20" clip-path="url(#clipPath2)" cx="-142.8881" cy="511.7004" stroke="none"/>
    </g>
    <g text-rendering="geometricPrecision" stroke-miterlimit="1.45" shape-rendering="geometricPrecision" transform="matrix(1,0,0,1,998,-21)" stroke-linecap="butt">
      <ellipse rx="85.7822" fill="none" ry="20" clip-path="url(#clipPath2)" cx="-142.8881" cy="511.7004"/>
      <text x="-221.6703" xml:space="preserve" y="515.8547" clip-path="url(#clipPath2)" font-family="sans-serif" stroke="none">Primary Operation Module</text>
    </g>
    <g fill="rgb(255,255,153)" text-rendering="geometricPrecision" shape-rendering="geometricPrecision" transform="matrix(1,0,0,1,998,-21)" stroke="rgb(255,255,153)">
      <ellipse rx="94.2666" ry="20" clip-path="url(#clipPath2)" cx="77.8533" cy="774.15" stroke="none"/>
    </g>
    <g text-rendering="geometricPrecision" stroke-miterlimit="1.45" shape-rendering="geometricPrecision" transform="matrix(1,0,0,1,998,-21)" stroke-linecap="butt">
      <ellipse rx="94.2666" fill="none" ry="20" clip-path="url(#clipPath2)" cx="77.8533" cy="774.15"/>
      <text x="-9.4133" xml:space="preserve" y="778.3043" clip-path="url(#clipPath2)" font-family="sans-serif" stroke="none">Secondary Operation Module</text>
    </g>
    <g fill="silver" text-rendering="geometricPrecision" shape-rendering="geometricPrecision" transform="matrix(1,0,0,1,998,-21)" stroke="silver">
      <path d="M-176.9291 637.4519 Q-176.9291 627.4519 -166.9291 627.4519 L-118.8471 627.4519 Q-108.8471 627.4519 -108.8471 637.4519 L-108.8471 657.4519 Q-108.8471 667.4519 -118.8471 667.4519 L-166.9291 667.4519 Q-176.9291 667.4519 -176.9291 657.4519 Z" stroke="none" clip-path="url(#clipPath2)"/>
    </g>
    <g text-rendering="geometricPrecision" stroke-miterlimit="1.45" shape-rendering="geometricPrecision" transform="matrix(1,0,0,1,998,-21)" stroke-linecap="butt">
      <path fill="none" d="M-176.9291 637.4519 Q-176.9291 627.4519 -166.9291 627.4519 L-118.8471 627.4519 Q-108.8471 627.4519 -108.8471 637.4519 L-108.8471 657.4519 Q-108.8471 667.4519 -118.8471 667.4519 L-166.9291 667.4519 Q-176.9291 667.4519 -176.9291 657.4519 Z" clip-path="url(#clipPath2)"/>
      <text x="-169.9291" xml:space="preserve" y="651.6062" clip-path="url(#clipPath2)" font-family="sans-serif" stroke="none">MOD1.so</text>
    </g>
    <g fill="white" text-rendering="geometricPrecision" shape-rendering="geometricPrecision" transform="matrix(1,0,0,1,998,-21)" stroke="white">
      <path d="M-197.1419 721.2 Q-197.1419 714.2 -190.1419 714.2 L-190.1419 714.2 Q-183.1419 714.2 -183.1419 721.2 L-183.1419 747.2 Q-183.1419 754.2 -190.1419 754.2 L-190.1419 754.2 Q-197.1419 754.2 -197.1419 747.2 Z" stroke="none" clip-path="url(#clipPath2)"/>
    </g>
    <g text-rendering="geometricPrecision" stroke-miterlimit="1.45" shape-rendering="geometricPrecision" transform="matrix(1,0,0,1,998,-21)" stroke-linecap="butt">
      <path fill="none" d="M-197.1419 721.2 Q-197.1419 714.2 -190.1419 714.2 L-190.1419 714.2 Q-183.1419 714.2 -183.1419 721.2 L-183.1419 747.2 Q-183.1419 754.2 -190.1419 754.2 L-190.1419 754.2 Q-197.1419 754.2 -197.1419 747.2 Z" clip-path="url(#clipPath2)"/>
    </g>
    <g text-rendering="geometricPrecision" stroke-miterlimit="1.45" stroke-dasharray="6,2" shape-rendering="geometricPrecision" transform="matrix(1,0,0,1,998,-21)" stroke-linecap="butt">
      <path fill="none" d="M-519.7849 263.5665 L-519.7849 274.5496 L-863.9541 274.5496 L-863.9541 294.6867" clip-path="url(#clipPath2)"/>
    </g>
    <g text-rendering="geometricPrecision" stroke-miterlimit="1.45" stroke-dasharray="6,2" shape-rendering="geometricPrecision" transform="matrix(1,0,0,1,998,-21)" stroke-linecap="butt">
      <path d="M-863.9541 302.6867 L-858.9541 290.6867 L-863.9541 293.6867 L-868.9541 290.6867 Z" stroke="none" clip-path="url(#clipPath2)"/>
    </g>
    <g text-rendering="geometricPrecision" stroke-miterlimit="1.45" shape-rendering="geometricPrecision" font-family="sans-serif" transform="matrix(0.9999,0.0156,-0.0156,0.9999,203.6484,234.4712)" stroke-linecap="butt">
      <text x="2" xml:space="preserve" y="13.1387" clip-path="url(#clipPath3)" stroke="none">struct fcom_coreinit</text>
    </g>
    <g text-rendering="geometricPrecision" stroke-miterlimit="1.45" shape-rendering="geometricPrecision" transform="matrix(1,0,0,1,998,-21)" stroke-linecap="butt">
      <path fill="none" d="M-837.3005 319.3629 L-791.7121 313.7401" clip-path="url(#clipPath2)"/>
      <path fill="none" d="M-658.0131 312.9891 L-620.4493 317.1978" clip-path="url(#clipPath2)"/>
      <path d="M-612.4991 318.0886 L-623.8677 311.7835 L-621.4431 317.0865 L-624.9812 321.7214 Z" clip-path="url(#clipPath2)" stroke="none"/>
      <path fill="none" d="M-837.3005 328.9404 L-803.9995 336.7991" clip-path="url(#clipPath2)"/>
      <path d="M-796.2133 338.6365 L-806.7441 331.014 L-804.9727 336.5694 L-809.0409 340.7467 Z" clip-path="url(#clipPath2)" stroke="none"/>
      <path fill="none" d="M-652.7056 339.9979 L-620.2651 333.0434" clip-path="url(#clipPath2)"/>
      <path d="M-612.4428 331.3665 L-625.2243 328.9929 L-621.2429 333.253 L-623.1282 338.7708 Z" clip-path="url(#clipPath2)" stroke="none"/>
      <path fill="none" stroke-dasharray="6,2" d="M-571.7849 342.6831 L-571.7849 401.7004 L-863.9541 401.7004 L-863.9541 413.6614" clip-path="url(#clipPath2)"/>
      <path stroke-dasharray="6,2" d="M-863.9541 421.6614 L-858.9541 409.6614 L-863.9541 412.6614 L-868.9541 409.6614 Z" clip-path="url(#clipPath2)" stroke="none"/>
    </g>
    <g text-rendering="geometricPrecision" stroke-miterlimit="1.45" shape-rendering="geometricPrecision" font-family="sans-serif" transform="matrix(0.9998,-0.0177,0.0177,0.9998,209.9859,361.562)" stroke-linecap="butt">
      <text x="2" xml:space="preserve" y="13.1387" clip-path="url(#clipPath4)" stroke="none">struct fcom_core</text>
    </g>
    <g text-rendering="geometricPrecision" stroke-miterlimit="1.45" shape-rendering="geometricPrecision" transform="matrix(1,0,0,1,998,-21)" stroke-linecap="butt">
      <path fill="none" d="M-863.9541 461.7102 L-863.9541 471.7004 L-579.2731 471.7004 L-579.2731 483.6614" clip-path="url(#clipPath2)"/>
      <path d="M-579.2731 491.6614 L-574.2731 479.6614 L-579.2731 482.6614 L-584.2731 479.6614 Z" clip-path="url(#clipPath2)" stroke="none"/>
      <path fill="none" d="M-579.2731 531.7094 L-579.2731 541.3519 L-864.7627 541.3519 L-864.7627 549.463" clip-path="url(#clipPath2)"/>
      <path d="M-864.7627 557.463 L-859.7627 545.463 L-864.7627 548.463 L-869.7627 545.463 Z" clip-path="url(#clipPath2)" stroke="none"/>
      <path fill="none" d="M-647.137 441.7004 L-625.1873 441.7004" clip-path="url(#clipPath2)"/>
      <path d="M-617.1873 441.7004 L-629.1873 436.7004 L-626.1873 441.7004 L-629.1873 446.7004 Z" clip-path="url(#clipPath2)" stroke="none"/>
      <path fill="none" d="M-837.2814 126.3274 L-811.9918 126.3274" clip-path="url(#clipPath2)"/>
      <path d="M-803.9918 126.3274 L-815.9918 121.3274 L-812.9918 126.3274 L-815.9918 131.3274 Z" clip-path="url(#clipPath2)" stroke="none"/>
      <path fill="none" d="M-955.1676 76.3226 L-955.1676 106.3548" clip-path="url(#clipPath2)"/>
      <path fill="none" d="M-930.0037 126.3274 L-898.6255 126.3274" clip-path="url(#clipPath2)"/>
      <path d="M-890.6255 126.3274 L-902.6255 121.3274 L-899.6255 126.3274 L-902.6255 131.3274 Z" clip-path="url(#clipPath2)" stroke="none"/>
      <path fill="none" d="M-863.9541 76.3226 L-863.9541 106.3548" clip-path="url(#clipPath2)"/>
      <path fill="none" d="M-762.6077 146.3103 L-762.6077 154.0323" clip-path="url(#clipPath2)"/>
      <path d="M-762.6077 162.0323 L-757.6077 150.0323 L-762.6077 153.0323 L-767.6077 150.0323 Z" clip-path="url(#clipPath2)" stroke="none"/>
      <path fill="none" stroke-dasharray="6,2" d="M-806.0206 182.0074 L-912.5013 182.0074 L-937.4223 149.4853" clip-path="url(#clipPath2)"/>
      <path stroke-dasharray="6,2" d="M-798.0206 182.0074 C-798.0206 184.2166 -799.8115 186.0074 -802.0206 186.0074 C-804.2298 186.0074 -806.0206 184.2166 -806.0206 182.0074 C-806.0206 179.7983 -804.2298 178.0074 -802.0206 178.0074 C-799.8115 178.0074 -798.0206 179.7983 -798.0206 182.0074 Z" clip-path="url(#clipPath2)" stroke="none"/>
      <path stroke-dasharray="6,2" d="M-942.2881 143.1352 C-940.5346 141.7915 -938.0239 142.1238 -936.6802 143.8773 C-935.3365 145.6308 -935.6688 148.1416 -937.4223 149.4853 C-939.1758 150.8289 -941.6866 150.4967 -943.0303 148.7432 C-944.3739 146.9897 -944.0417 144.4789 -942.2881 143.1352 Z" clip-path="url(#clipPath2)" stroke="none"/>
      <path fill="none" stroke-dasharray="6,2" d="M-801.9734 193.1838 L-829.5956 201.026" clip-path="url(#clipPath2)"/>
      <path stroke-dasharray="6,2" d="M-837.2915 203.211 L-824.3821 204.7435 L-828.6337 200.7529 L-827.1133 195.1237 Z" clip-path="url(#clipPath2)" stroke="none"/>
      <path fill="none" d="M-863.9541 230.7919 L-863.9541 243.567 L-556.6477 243.567" clip-path="url(#clipPath2)"/>
      <path d="M-548.6477 243.567 L-560.6477 238.567 L-557.6477 243.567 L-560.6477 248.567 Z" clip-path="url(#clipPath2)" stroke="none"/>
    </g>
    <g text-rendering="geometricPrecision" stroke-miterlimit="1.45" shape-rendering="geometricPrecision" font-family="sans-serif" transform="matrix(0.9999,0.0137,-0.0137,0.9999,197.6365,200.0877)" stroke-linecap="butt">
      <text x="2" xml:space="preserve" y="13.1387" clip-path="url(#clipPath5)" stroke="none">dladdr("fcom_coreinit")</text>
    </g>
    <g text-rendering="geometricPrecision" stroke-miterlimit="1.45" shape-rendering="geometricPrecision" transform="matrix(1,0,0,1,998,-21)" stroke-linecap="butt">
      <path fill="none" d="M-824.2509 577.4519 L-794.2698 577.4519" clip-path="url(#clipPath2)"/>
      <path fill="none" d="M-645.9355 577.4519 L-624.9986 577.4519" clip-path="url(#clipPath2)"/>
      <path d="M-616.9986 577.4519 L-628.9986 572.4519 L-625.9986 577.4519 L-628.9986 582.4519 Z" clip-path="url(#clipPath2)" stroke="none"/>
      <path fill="none" d="M-541.5647 577.4519 L-519.0464 577.4519" clip-path="url(#clipPath2)"/>
      <path d="M-511.0464 577.4519 L-523.0464 572.4519 L-520.0464 577.4519 L-523.0464 582.4519 Z" clip-path="url(#clipPath2)" stroke="none"/>
      <path fill="none" d="M-410.7209 577.4519 L-184.923 577.4519" clip-path="url(#clipPath2)"/>
      <path d="M-176.923 577.4519 L-188.923 572.4519 L-185.923 577.4519 L-188.923 582.4519 Z" clip-path="url(#clipPath2)" stroke="none"/>
      <text x="-382.213" xml:space="preserve" y="569.6062" clip-path="url(#clipPath2)" font-family="sans-serif" stroke="none">dladdr("fcom_module")</text>
      <path fill="none" stroke-dasharray="6,2" d="M-142.8881 597.441 L-142.8881 610.9525 L-460.9177 610.9525 L-460.9177 619.4556" clip-path="url(#clipPath2)"/>
      <path stroke-dasharray="6,2" d="M-460.9177 627.4556 L-455.9177 615.4556 L-460.9177 618.4556 L-465.9177 615.4556 Z" clip-path="url(#clipPath2)" stroke="none"/>
    </g>
    <g text-rendering="geometricPrecision" stroke-miterlimit="1.45" shape-rendering="geometricPrecision" font-family="sans-serif" transform="matrix(1,-0.0043,0.0043,1,644.1025,567.5148)" stroke-linecap="butt">
      <text x="2" xml:space="preserve" y="13.1387" clip-path="url(#clipPath6)" stroke="none">struct fcom_module</text>
    </g>
    <g text-rendering="geometricPrecision" stroke-miterlimit="1.45" shape-rendering="geometricPrecision" transform="matrix(1,0,0,1,998,-21)" stroke-linecap="butt">
      <path fill="none" d="M-470.879 804.2 L-518.9973 804.2" clip-path="url(#clipPath2)"/>
      <path d="M-526.9973 804.2 L-514.9973 809.2 L-517.9973 804.2 L-514.9973 799.2 Z" clip-path="url(#clipPath2)" stroke="none"/>
      <path fill="none" d="M-450.1099 877.1 L-550.2854 877.1" clip-path="url(#clipPath2)"/>
      <path d="M-558.2854 877.1 L-546.2854 882.1 L-549.2854 877.1 L-546.2854 872.1 Z" clip-path="url(#clipPath2)" stroke="none"/>
      <path fill="none" d="M-179.778 861.0272 L-214.9096 877.1 L-343.3236 877.1" clip-path="url(#clipPath2)"/>
      <path fill="none" d="M-179.7944 826.1062 L-224.6008 804.2 L-322.5536 804.2" clip-path="url(#clipPath2)"/>
      <path fill="none" stroke-dasharray="6,2" d="M-955.1676 150.3241 L-955.1676 628.0519 L-798.2667 628.0519" clip-path="url(#clipPath2)"/>
      <path stroke-dasharray="6,2" d="M-955.1676 142.3241 C-952.9584 142.3241 -951.1676 144.115 -951.1676 146.3241 C-951.1676 148.5333 -952.9584 150.3241 -955.1676 150.3241 C-957.3768 150.3241 -959.1676 148.5333 -959.1676 146.3241 C-959.1676 144.115 -957.3768 142.3241 -955.1676 142.3241 Z" clip-path="url(#clipPath2)" stroke="none"/>
      <path stroke-dasharray="6,2" d="M-790.2667 628.0519 C-790.2667 630.261 -792.0575 632.0519 -794.2667 632.0519 C-796.4758 632.0519 -798.2667 630.261 -798.2667 628.0519 C-798.2667 625.8427 -796.4758 624.0519 -794.2667 624.0519 C-792.0575 624.0519 -790.2667 625.8427 -790.2667 628.0519 Z" clip-path="url(#clipPath2)" stroke="none"/>
      <path fill="none" d="M-824.9486 591.9673 L-788.3653 605.3048" clip-path="url(#clipPath2)"/>
      <path d="M-780.8492 608.045 L-790.4107 599.2372 L-789.3048 604.9623 L-793.836 608.6322 Z" clip-path="url(#clipPath2)" stroke="none"/>
      <path fill="none" d="M-667.9877 608.0516 L-624.3057 592.9846" clip-path="url(#clipPath2)"/>
      <path d="M-616.7429 590.3761 L-629.7173 589.5621 L-625.251 593.3107 L-626.4567 599.0156 Z" clip-path="url(#clipPath2)" stroke="none"/>
      <path fill="none" d="M-300.1829 754.1837 L-300.1829 777.1 L-142.8881 777.1 L-142.8881 789.1037" clip-path="url(#clipPath2)"/>
      <path d="M-142.8881 797.1037 L-137.8881 785.1037 L-142.8881 788.1037 L-147.8881 785.1037 Z" clip-path="url(#clipPath2)" stroke="none"/>
      <path fill="none" d="M-541.5592 734.2 L-373.2263 734.2" clip-path="url(#clipPath2)"/>
      <path fill="none" d="M-585.0739 983.1884 L-585.0739 995.4332 L8.5755 995.4332" clip-path="url(#clipPath2)"/>
      <path d="M16.5755 995.4332 L4.5755 990.4332 L7.5755 995.4332 L4.5755 1000.4332 Z" clip-path="url(#clipPath2)" stroke="none"/>
    </g>
    <g text-rendering="geometricPrecision" stroke-miterlimit="1.45" shape-rendering="geometricPrecision" font-family="sans-serif" transform="matrix(1,0.0081,-0.0081,1,759.8117,949.8827)" stroke-linecap="butt">
      <text x="2" xml:space="preserve" y="13.1387" clip-path="url(#clipPath7)" stroke="none">dladdr("fcom_module"); dladdr("OP2")</text>
    </g>
    <g text-rendering="geometricPrecision" stroke-miterlimit="1.45" shape-rendering="geometricPrecision" transform="matrix(1,0,0,1,998,-21)" stroke-linecap="butt">
      <path fill="none" d="M-179.0142 886.0142 L-215.6018 928.4133 L-343.3624 928.4133" clip-path="url(#clipPath2)"/>
    </g>
    <g text-rendering="geometricPrecision" stroke-miterlimit="1.45" shape-rendering="geometricPrecision" font-family="sans-serif" transform="matrix(1,-0.0003,0.0003,1,659.649,886.7298)" stroke-linecap="butt">
      <text x="2" xml:space="preserve" y="13.1387" clip-path="url(#clipPath8)" stroke="none">"MOD2.OP2"</text>
    </g>
    <g text-rendering="geometricPrecision" stroke-miterlimit="1.45" shape-rendering="geometricPrecision" transform="matrix(1,0,0,1,998,-21)" stroke-linecap="butt">
      <path fill="none" d="M-458.1003 928.4133 L-585.0739 928.4133 L-585.0739 935.1909" clip-path="url(#clipPath2)"/>
      <path d="M-585.0739 943.1909 L-580.0739 931.1909 L-585.0739 934.1909 L-590.0739 931.1909 Z" clip-path="url(#clipPath2)" stroke="none"/>
      <path fill="none" stroke-dasharray="6,2" d="M50.6019 975.4639 L50.6019 962.1837 L-123.349 962.1837 L-134.8174 942.3623" clip-path="url(#clipPath2)"/>
      <path stroke-dasharray="6,2" d="M-138.8238 935.4378 L-137.142 948.3286 L-134.3166 943.2278 L-128.4864 943.3206 Z" clip-path="url(#clipPath2)" stroke="none"/>
    </g>
    <g text-rendering="geometricPrecision" stroke-miterlimit="1.45" shape-rendering="geometricPrecision" font-family="sans-serif" transform="matrix(0.9997,-0.0225,0.0225,0.9997,925.0543,916.0768)" stroke-linecap="butt">
      <text x="2" xml:space="preserve" y="13.1387" clip-path="url(#clipPath9)" stroke="none">struct fcom_OP2</text>
    </g>
    <g text-rendering="geometricPrecision" stroke-miterlimit="1.45" stroke-dasharray="6,2" shape-rendering="geometricPrecision" transform="matrix(1,0,0,1,998,-21)" stroke-linecap="butt">
      <path fill="none" d="M-534.9016 963.2 L-142.8881 963.2 L-142.8881 943.4454" clip-path="url(#clipPath2)"/>
      <path d="M-142.8881 935.4454 L-147.8881 947.4454 L-142.8881 944.4454 L-137.8881 947.4454 Z" clip-path="url(#clipPath2)" stroke="none"/>
      <path fill="none" d="M-142.8881 921.3777 L-142.8881 899.1729" clip-path="url(#clipPath2)"/>
      <path d="M-142.8881 891.1729 L-147.8881 903.1729 L-142.8881 900.1729 L-137.8881 903.1729 Z" clip-path="url(#clipPath2)" stroke="none"/>
      <path fill="none" d="M-851.4539 553.9877 L-796.744 457.5308" clip-path="url(#clipPath2)"/>
      <path d="M-855.4007 560.9464 C-857.3223 559.8565 -857.9965 557.4152 -856.9066 555.4937 C-855.8168 553.5721 -853.3755 552.8978 -851.4539 553.9877 C-849.5323 555.0776 -848.8581 557.5189 -849.948 559.4404 C-851.0378 561.362 -853.4791 562.0363 -855.4007 560.9464 Z" clip-path="url(#clipPath2)" stroke="none"/>
      <path d="M-792.7971 450.5722 C-790.8755 451.6621 -790.2014 454.1034 -791.2913 456.025 C-792.3812 457.9465 -794.8224 458.6207 -796.744 457.5308 C-798.6656 456.4409 -799.3398 453.9996 -798.2499 452.0781 C-797.16 450.1565 -794.7187 449.4823 -792.7971 450.5722 Z" clip-path="url(#clipPath2)" stroke="none"/>
      <path fill="none" stroke-dasharray="none" d="M-837.2805 441.7004 L-802.7766 441.7004" clip-path="url(#clipPath2)"/>
      <path stroke-dasharray="none" d="M-794.7766 441.7004 L-806.7766 436.7004 L-803.7766 441.7004 L-806.7766 446.7004 Z" clip-path="url(#clipPath2)" stroke="none"/>
      <path fill="none" stroke-dasharray="none" d="M-780.7328 441.7004 L-761.8648 441.7004" clip-path="url(#clipPath2)"/>
      <path fill="none" stroke-dasharray="none" d="M-928.043 1025.5354 L-906.0422 1025.5354" clip-path="url(#clipPath2)"/>
      <path stroke-dasharray="none" d="M-898.0422 1025.5354 L-910.0422 1020.5354 L-907.0422 1025.5354 L-910.0422 1030.5354 Z" clip-path="url(#clipPath2)" stroke="none"/>
      <path fill="none" stroke-dasharray="none" d="M-818.243 1025.5354 L-648.3207 1025.5354" clip-path="url(#clipPath2)"/>
      <path stroke-dasharray="none" d="M-640.3207 1025.5354 L-652.3207 1020.5354 L-649.3207 1025.5354 L-652.3207 1030.5354 Z" clip-path="url(#clipPath2)" stroke="none"/>
      <path fill="none" stroke-dasharray="none" d="M-529.8277 1025.5354 L-195.4296 1025.5354" clip-path="url(#clipPath2)"/>
      <path stroke-dasharray="none" d="M-187.4296 1025.5354 L-199.4296 1020.5354 L-196.4296 1025.5354 L-199.4296 1030.5354 Z" clip-path="url(#clipPath2)" stroke="none"/>
      <path fill="none" stroke-dasharray="none" d="M-105.9638 844.15 L-83.534 844.15" clip-path="url(#clipPath2)"/>
      <path fill="none" stroke-dasharray="none" d="M29.2295 844.15 L51.2325 844.15" clip-path="url(#clipPath2)"/>
      <path stroke-dasharray="none" d="M59.2325 844.15 L47.2325 839.15 L50.2325 844.15 L47.2325 849.15 Z" clip-path="url(#clipPath2)" stroke="none"/>
      <path fill="none" stroke-dasharray="none" d="M-410.7209 647.4519 L-184.923 647.4519" clip-path="url(#clipPath2)"/>
      <path stroke-dasharray="none" d="M-176.923 647.4519 L-188.923 642.4519 L-185.923 647.4519 L-188.923 652.4519 Z" clip-path="url(#clipPath2)" stroke="none"/>
      <text x="-338.3819" y="641.2228" clip-path="url(#clipPath2)" font-family="sans-serif" stroke-dasharray="none" stroke="none" xml:space="preserve">dladdr("OP1")</text>
      <path fill="none" d="M-142.8881 667.425 L-142.8881 695.35 L-579.2731 695.35 L-579.2731 706.2059" clip-path="url(#clipPath2)"/>
      <path d="M-579.2731 714.2059 L-574.2731 702.2059 L-579.2731 705.2059 L-584.2731 702.2059 Z" clip-path="url(#clipPath2)" stroke="none"/>
    </g>
    <g text-rendering="geometricPrecision" stroke-miterlimit="1.45" shape-rendering="geometricPrecision" font-family="sans-serif" transform="matrix(1,-0.0075,0.0075,1,620.0201,651.8855)" stroke-linecap="butt">
      <text x="2" xml:space="preserve" y="13.1387" clip-path="url(#clipPath10)" stroke="none">struct fcom_operation</text>
    </g>
    <g text-rendering="geometricPrecision" stroke-miterlimit="1.45" shape-rendering="geometricPrecision" transform="matrix(1,0,0,1,998,-21)" stroke-linecap="butt">
      <path fill="none" d="M-227.1357 734.2 L-205.1143 734.2" clip-path="url(#clipPath2)"/>
      <path d="M-197.1143 734.2 L-209.1143 729.2 L-206.1143 734.2 L-209.1143 739.2 Z" clip-path="url(#clipPath2)" stroke="none"/>
      <path fill="none" stroke-dasharray="6,2" d="M-725.9727 652.0287 L-725.9727 764.2 L-190.1419 764.2 L-190.1419 758.2098" clip-path="url(#clipPath2)"/>
      <path stroke-dasharray="6,2" d="M-725.9727 644.0287 C-723.7635 644.0287 -721.9727 645.8195 -721.9727 648.0287 C-721.9727 650.2379 -723.7635 652.0287 -725.9727 652.0287 C-728.1818 652.0287 -729.9727 650.2379 -729.9727 648.0287 C-729.9727 645.8195 -728.1818 644.0287 -725.9727 644.0287 Z" clip-path="url(#clipPath2)" stroke="none"/>
      <path stroke-dasharray="6,2" d="M-190.1419 750.2098 C-187.9328 750.2098 -186.1419 752.0006 -186.1419 754.2098 C-186.1419 756.4189 -187.9328 758.2098 -190.1419 758.2098 C-192.351 758.2098 -194.1419 756.4189 -194.1419 754.2098 C-194.1419 752.0006 -192.351 750.2098 -190.1419 750.2098 Z" clip-path="url(#clipPath2)" stroke="none"/>
      <path fill="none" d="M-183.1252 734.2 L-167.1329 734.2" clip-path="url(#clipPath2)"/>
      <path d="M-159.1329 734.2 L-171.1329 729.2 L-168.1329 734.2 L-171.1329 739.2 Z" clip-path="url(#clipPath2)" stroke="none"/>
    </g>
  </g>
</svg>
